<svg xmlns="http://www.w3.org/2000/svg" width="401.999" height="164.966" viewBox="0 0 401.999 164.966"><g id="Group_64" data-name="Group 64" transform="translate(-49.78 -62.276)"><g id="Group_62" data-name="Group 62" transform="translate(49.78 136.792)"><path id="Path_89" data-name="Path 89" d="M92.489,179.078H69.629l-4.248,10.5H49.78l23.865-54.064H88.706l23.941,54.064H96.737ZM88.01,167.8l-6.952-17.3-6.95,17.3Z" transform="translate(-49.78 -134.084)" fill="#424448"></path><path id="Path_90" data-name="Path 90" d="M113.012,165.485V135.517h15.293v29.505c0,9.266,3.861,12.975,10.271,12.975,6.333,0,10.195-3.708,10.195-12.975V135.517h15.061v29.968c0,16.142-9.423,25.179-25.41,25.179s-25.41-9.037-25.41-25.179" transform="translate(-47.442 -134.084)" fill="#424448"></path><path id="Path_91" data-name="Path 91" d="M182.871,147.644H166.266V135.518h48.425v12.127H198.164v41.937H182.871Z" transform="translate(-45.473 -134.084)" fill="#424448"></path><path id="Path_92" data-name="Path 92" d="M278.059,162.588c0-16.451,12.588-28.113,29.734-28.113,9.963,0,18,3.629,23.248,10.195l-9.732,8.8c-3.4-4.093-7.568-6.333-12.743-6.333-8.882,0-15.061,6.179-15.061,15.447s6.179,15.447,15.061,15.447c5.176,0,9.345-2.24,12.743-6.333l9.732,8.8c-5.252,6.564-13.285,10.193-23.248,10.193-17.146,0-29.734-11.662-29.734-28.112" transform="translate(-41.339 -134.122)" fill="#424448"></path><path id="Path_93" data-name="Path 93" d="M371.266,179.078H348.4l-4.247,10.5h-15.6l23.865-54.064h15.061l23.943,54.064H375.513Zm-4.48-11.276-6.952-17.3-6.95,17.3Z" transform="translate(-39.472 -134.084)" fill="#424448"></path><path id="Path_94" data-name="Path 94" d="M439.171,177.455v12.125H390.746v-9.576l27.263-32.361H391.441V135.517h46.572V145.1l-27.264,32.36Z" transform="translate(-37.172 -134.084)" fill="#424448"></path><path id="Path_95" data-name="Path 95" d="M245.037,134.135A28.466,28.466,0,1,0,273.5,162.6,28.5,28.5,0,0,0,245.037,134.135Zm7.926,36.826a49.4,49.4,0,0,1,6.272-5.272,1.026,1.026,0,0,1,.509-.1,9.891,9.891,0,0,1,3.758,1.275,19,19,0,0,1-13.079,13.906C251.609,174.713,252.562,171.445,252.963,170.961Zm-22.124-5.272a49.025,49.025,0,0,1,6.265,5.266c.405.488,1.357,3.754,2.547,9.811a18.784,18.784,0,0,1-3.833-1.618,19.075,19.075,0,0,1-7.529-7.7,18.744,18.744,0,0,1-1.7-4.543C228.071,166.083,230.151,165.284,230.839,165.689Zm13.949-12.235c-9.443,0-14.683,1.253-17.322,2.067a19.206,19.206,0,0,1,6.154-8.033,18.9,18.9,0,0,1,22.848.012,19.167,19.167,0,0,1,6.166,8.086C259.875,154.758,254.378,153.454,244.788,153.454Zm.249,5.5a4.114,4.114,0,1,1-4.114,4.114A4.119,4.119,0,0,1,245.037,158.955Z" transform="translate(-43.612 -134.135)" fill="#0c662f"></path><path id="Path_96" data-name="Path 96" d="M122.237,207.561h2.733l4.24,10.813,4.219-10.813H136.1l-5.829,14.167h-2.19Z" transform="translate(-47.101 -131.42)" fill="#424448"></path><path id="Path_97" data-name="Path 97" d="M137.566,207.561H148v2.211h-7.959v3.657h7.055v2.211h-7.055v3.778H148.1v2.211H137.566Z" transform="translate(-46.534 -131.42)" fill="#424448"></path><path id="Path_98" data-name="Path 98" d="M150.164,207.561h2.472v5.849h6.712v-5.849h2.472v14.068h-2.472V215.7h-6.712v5.929h-2.472Z" transform="translate(-46.068 -131.42)" fill="#424448"></path><path id="Path_99" data-name="Path 99" d="M164.642,207.561h2.471v14.068h-2.471Z" transform="translate(-45.533 -131.42)" fill="#424448"></path><path id="Path_100" data-name="Path 100" d="M169.68,214.644v-.04a7.118,7.118,0,0,1,7.255-7.274,7.333,7.333,0,0,1,5.506,2.19l-1.588,1.829a5.594,5.594,0,0,0-3.938-1.749,4.735,4.735,0,0,0-4.643,4.965v.039a4.741,4.741,0,0,0,4.643,4.985,5.492,5.492,0,0,0,4.039-1.81l1.588,1.608a7.26,7.26,0,0,1-5.708,2.492A7.076,7.076,0,0,1,169.68,214.644Z" transform="translate(-45.346 -131.428)" fill="#424448"></path><path id="Path_101" data-name="Path 101" d="M184,215.66v-8.1h2.472v8c0,2.613,1.347,4,3.557,4,2.191,0,3.537-1.306,3.537-3.9v-8.1h2.472v7.979c0,4.2-2.372,6.31-6.049,6.31C186.333,221.85,184,219.739,184,215.66Z" transform="translate(-44.817 -131.42)" fill="#424448"></path><path id="Path_102" data-name="Path 102" d="M198.518,207.561h2.472v11.817h7.4v2.25h-9.868Z" transform="translate(-44.28 -131.42)" fill="#424448"></path><path id="Path_103" data-name="Path 103" d="M210.146,207.561h10.431v2.211h-7.959v3.657h7.054v2.211h-7.054v3.778h8.059v2.211H210.146Z" transform="translate(-43.85 -131.42)" fill="#424448"></path><path id="Path_104" data-name="Path 104" d="M221.853,219.587l1.486-1.769a6.519,6.519,0,0,0,4.442,1.829c1.526,0,2.491-.724,2.491-1.77v-.039c0-1-.562-1.547-3.175-2.151-2.994-.724-4.682-1.607-4.682-4.2v-.04c0-2.411,2.01-4.079,4.8-4.079a7.8,7.8,0,0,1,5.1,1.768L231,211a6.388,6.388,0,0,0-3.818-1.447c-1.447,0-2.291.744-2.291,1.667v.04c0,1.086.643,1.568,3.356,2.21,2.974.724,4.5,1.79,4.5,4.12v.04c0,2.633-2.07,4.2-5.024,4.2A8.663,8.663,0,0,1,221.853,219.587Z" transform="translate(-43.417 -131.427)" fill="#424448"></path><path id="Path_105" data-name="Path 105" d="M240.225,207.561h5.245c4.422,0,7.477,3.034,7.477,6.994v.039c0,3.959-3.055,7.034-7.477,7.034h-5.245Zm2.471,2.25v9.567h2.774a4.585,4.585,0,0,0,4.883-4.743v-.04a4.616,4.616,0,0,0-4.883-4.784Z" transform="translate(-42.738 -131.42)" fill="#424448"></path><path id="Path_106" data-name="Path 106" d="M254.024,212.2c1.226-.221,1.809-.844,1.728-1.889h-1.044v-2.753h2.672v2.352c0,2.231-1.065,3.175-3.1,3.335Z" transform="translate(-42.228 -131.42)" fill="#424448"></path><path id="Path_107" data-name="Path 107" d="M259.258,214.644v-.04a7.355,7.355,0,0,1,14.71-.039v.039a7.355,7.355,0,0,1-14.71.04Zm12.118,0v-.04a4.822,4.822,0,0,0-4.784-5,4.754,4.754,0,0,0-4.743,4.965v.039a4.8,4.8,0,0,0,4.783,4.985A4.738,4.738,0,0,0,271.376,214.644Z" transform="translate(-42.034 -131.428)" fill="#424448"></path><path id="Path_108" data-name="Path 108" d="M275.362,214.644v-.04a7.118,7.118,0,0,1,7.255-7.274,7.335,7.335,0,0,1,5.506,2.19l-1.588,1.829A5.594,5.594,0,0,0,282.6,209.6a4.735,4.735,0,0,0-4.642,4.965v.039a4.74,4.74,0,0,0,4.642,4.985,5.5,5.5,0,0,0,4.04-1.81l1.588,1.608a7.262,7.262,0,0,1-5.708,2.492A7.076,7.076,0,0,1,275.362,214.644Z" transform="translate(-41.439 -131.428)" fill="#424448"></path><path id="Path_109" data-name="Path 109" d="M288.909,214.644v-.04a7.118,7.118,0,0,1,7.255-7.274,7.335,7.335,0,0,1,5.506,2.19l-1.588,1.829a5.6,5.6,0,0,0-3.939-1.749,4.735,4.735,0,0,0-4.642,4.965v.039a4.74,4.74,0,0,0,4.642,4.985,5.5,5.5,0,0,0,4.04-1.81l1.588,1.608a7.262,7.262,0,0,1-5.708,2.492A7.076,7.076,0,0,1,288.909,214.644Z" transform="translate(-40.938 -131.428)" fill="#424448"></path><path id="Path_110" data-name="Path 110" d="M308.471,207.465h2.291l6.191,14.167h-2.613l-1.427-3.4h-6.651l-1.448,3.4h-2.532Zm3.538,8.58-2.432-5.627-2.412,5.627Z" transform="translate(-40.443 -131.423)" fill="#424448"></path><path id="Path_111" data-name="Path 111" d="M317.243,219.587l1.488-1.769a6.514,6.514,0,0,0,4.44,1.829c1.527,0,2.492-.724,2.492-1.77v-.039c0-1-.562-1.547-3.175-2.151-2.994-.724-4.682-1.607-4.682-4.2v-.04c0-2.411,2.01-4.079,4.8-4.079a7.8,7.8,0,0,1,5.1,1.768L326.387,211a6.388,6.388,0,0,0-3.819-1.447c-1.447,0-2.29.744-2.29,1.667v.04c0,1.086.643,1.568,3.356,2.21,2.974.724,4.5,1.79,4.5,4.12v.04c0,2.633-2.07,4.2-5.024,4.2A8.669,8.669,0,0,1,317.243,219.587Z" transform="translate(-39.89 -131.427)" fill="#424448"></path><path id="Path_112" data-name="Path 112" d="M330.306,207.561h2.471v14.068h-2.471Z" transform="translate(-39.407 -131.42)" fill="#424448"></path><path id="Path_113" data-name="Path 113" d="M335.345,214.644v-.04a7.355,7.355,0,0,1,14.71-.039v.039a7.355,7.355,0,0,1-14.71.04Zm12.118,0v-.04a4.821,4.821,0,0,0-4.784-5,4.755,4.755,0,0,0-4.743,4.965v.039a4.8,4.8,0,0,0,4.783,4.985A4.737,4.737,0,0,0,347.463,214.644Z" transform="translate(-39.22 -131.428)" fill="#424448"></path><path id="Path_114" data-name="Path 114" d="M352.051,207.561h2.292l7.536,9.727v-9.727h2.432v14.068h-2.071l-7.757-10.008v10.008h-2.432Z" transform="translate(-38.603 -131.42)" fill="#424448"></path></g><g id="Group_63" data-name="Group 63" transform="translate(76.824 62.276)"><path id="Path_115" data-name="Path 115" d="M432.968,124.143S403.662,103.361,315.1,101.128c0,0-95.655-80.427-209.661-9.848L137.888,92.9s78.9-60.447,176.859,11.441C395.415,105.386,432.968,124.143,432.968,124.143Z" transform="translate(-74.766 -62.276)" fill="#0c662f"></path><path id="Path_116" data-name="Path 116" d="M233.794,104.439S46.846,82.835,79.742,114.546C79.742,114.546,76.918,89.177,233.794,104.439Z" transform="translate(-75.86 -60.983)" fill="#0c662f"></path></g></g></svg>